<?xml version="1.0" encoding="UTF-8"?>
<svg id="Vrstva_1" xmlns="http://www.w3.org/2000/svg" viewBox="0 0 300 300">
  <defs>
    <style>
      .cls-1 {
        fill: #abe0f9;
      }

      .cls-2 {
        fill: #ce8d5b;
      }

      .cls-3 {
        fill: #fff;
      }

      .cls-4 {
        fill: #9e5a23;
      }

      .cls-5 {
        fill: #00adef;
      }

      .cls-6 {
        fill: #844414;
      }
    </style>
  </defs>
  <path class="cls-4" d="M121.69,82.56l30.93-34.37h-64.61l30.93,34.37h2.75Z"/>
  <path class="cls-6" d="M120.32,158.16l-63.23-63.23,19.59-19.24,63.23,63.23-19.59,19.24Z"/>
  <g>
    <path class="cls-4" d="M120.32,119.33l63.23-63.23,19.24,19.59-63.23,63.23-19.24-19.59Z"/>
    <path class="cls-4" d="M120.32,196.99l-63.23-63.23,19.59-19.59,63.23,63.23-19.59,19.59Z"/>
  </g>
  <g>
    <path class="cls-2" d="M120.32,158.16l63.23-63.23,19.59,19.59-63.58,63.23-19.24-19.59Z"/>
    <path class="cls-2" d="M120.32,235.83l-63.23-63.23,19.59-19.59,62.89,63.58-19.24,19.24Z"/>
  </g>
  <path class="cls-4" d="M120.32,196.99l63.23-63.23,19.59,19.59-63.58,63.23-19.24-19.59Z"/>
  <path class="cls-2" d="M76.67,231.02l-16.5,16.5h32.65l-16.15-16.5Z"/>
  <path class="cls-6" d="M76.67,192.18l-19.59,19.59,35.74,35.74h38.83l-54.98-55.33Z"/>
  <path class="cls-2" d="M147.46,247.51h38.83l16.5-16.5-19.24-19.24-36.08,35.74Z"/>
  <g>
    <path class="cls-6" d="M219.29,247.51l-16.5-16.5-16.5,16.5h32.99Z"/>
    <path class="cls-6" d="M120.32,80.49l19.59,19.59,51.89-51.89h-39.18l-32.3,32.3Z"/>
  </g>
  <path class="cls-2" d="M57.08,56.1l63.23,63.23,19.59-19.59-51.55-51.55h-23.37l-7.9,7.9Z"/>
  <g>
    <path class="cls-6" d="M120.32,235.83l11.34,11.68h16.15l55.33-55.33-19.59-19.24-63.23,62.89Z"/>
    <path class="cls-6" d="M57.08,56.1l7.9-7.9h-25.77v25.77l17.87-17.87Z"/>
  </g>
  <path class="cls-4" d="M39.21,112.8l37.46-37.11-19.59-19.59-17.87,17.87v38.83Z"/>
  <path class="cls-2" d="M39.21,151.63l37.46-37.46-19.59-19.59-17.87,18.21v38.83Z"/>
  <path class="cls-6" d="M39.21,190.46l37.46-37.46-19.59-19.59-17.87,18.21v38.83Z"/>
  <path class="cls-4" d="M39.21,229.64l37.46-37.46-19.59-19.59-17.87,17.87v39.18Z"/>
  <path class="cls-6" d="M57.08,211.77l-17.87,17.87v17.87h20.96l16.5-16.5-19.59-19.24Z"/>
  <path class="cls-2" d="M238.53,72.25l-24.06-24.06h-23.02l-7.9,8.25,54.98,54.98v-39.18Z"/>
  <path class="cls-6" d="M238.53,111.42l-35.74-35.74-19.24,19.24,54.98,54.98v-38.49Z"/>
  <path class="cls-4" d="M238.53,149.91l-35.4-35.74-19.59,19.59,54.98,54.98v-38.83Z"/>
  <path class="cls-2" d="M238.53,188.75l-35.4-35.4-19.59,19.59,54.98,54.98v-39.18Z"/>
  <g>
    <path class="cls-4" d="M202.79,192.18l-19.24,19.59,35.74,35.74h19.24v-19.59l-35.74-35.74Z"/>
    <path class="cls-4" d="M214.48,48.19l24.06,24.06v-24.06h-24.06Z"/>
  </g>
  <g id="SUCCESS">
    <path class="cls-5" d="M235.82,191.03c-22.32,0-40.41,18.09-40.41,40.41s18.09,40.41,40.41,40.41,40.41-18.1,40.41-40.41-18.09-40.41-40.41-40.41Z"/>
    <path class="cls-1" d="M195.41,231.44c0,6.68,1.64,13.26,4.81,19.14,4.04,1.18,8.22,1.79,12.43,1.78,24.29,0,43.98-19.69,43.98-43.98,0-4.27-.62-8.52-1.84-12.62-5.84-3.11-12.36-4.73-18.98-4.72-22.32,0-40.41,18.09-40.41,40.41Z"/>
    <path class="cls-3" d="M258.87,224.75l-24.29,25.51c-1.34,1.4-3.19,2.2-5.13,2.21h-.03c-1.93,0-3.77-.78-5.11-2.16l-12.89-13.27c-2.78-2.79-2.77-7.3.02-10.08s7.3-2.77,10.08.02c.04.04.09.09.13.13l7.73,7.96,19.18-20.14c2.68-2.88,7.19-3.04,10.07-.35,2.88,2.68,3.04,7.19.35,10.07-.03.04-.07.07-.1.11h0Z"/>
  </g>
</svg>