<?xml version="1.0" encoding="UTF-8"?>
<svg id="Vrstva_1" xmlns="http://www.w3.org/2000/svg" viewBox="0 0 300 300">
  <defs>
    <style>
      .cls-1 {
        fill: #757575;
      }

      .cls-2 {
        fill: #e2e2e2;
      }

      .cls-3 {
        fill: #00adef;
      }

      .cls-4 {
        fill: #e0e0e0;
      }

      .cls-5 {
        fill: #bdbdbd;
      }

      .cls-6 {
        fill: #ec3a8f;
      }

      .cls-7 {
        fill: #eee;
      }
    </style>
  </defs>
  <path class="cls-4" d="M126.33,72.58c0-3.81-3.08-6.89-6.89-6.89s-6.89,3.08-6.89,6.89v15.75h13.78v-15.75Z"/>
  <path class="cls-4" d="M197.19,72.58c0-3.81-3.08-6.89-6.89-6.89s-6.89,3.08-6.89,6.89v15.75h13.78v-15.75Z"/>
  <path class="cls-1" d="M264.12,249.75v15.75c0,3.81-3.08,6.89-6.89,6.89s-6.89-3.08-6.89-6.89v-15.75h13.78Z"/>
  <path class="cls-1" d="M59.4,249.75v15.75c0,3.81-3.08,6.89-6.89,6.89s-6.89-3.08-6.89-6.89v-15.75h13.78Z"/>
  <path class="cls-2" d="M161.76,88.33v-45.28c0-11.42-9.25-20.67-20.67-20.67s-20.67,9.25-20.67,20.67v1.97c0,3.81,3.08,6.89,6.89,6.89s6.89-3.08,6.89-6.89v-1.97c0-3.81,3.08-6.89,6.89-6.89s6.89,3.08,6.89,6.89v45.28h13.78Z"/>
  <path class="cls-7" d="M224.75,92.26c0,16.85-13.66,30.51-30.51,30.51h-78.74c-16.85,0-30.51-13.66-30.51-30.51h0v-3.94c0-3.8,3.09-6.89,6.89-6.89h125.98c3.8,0,6.89,3.09,6.89,6.89v3.94Z"/>
  <path class="cls-5" d="M36.76,123.76h236.22v125.98H36.76v-125.98Z"/>
  <path class="cls-1" d="M272.98,116.87H36.76c-3.81,0-6.89,3.08-6.89,6.89v125.98c0,3.81,3.08,6.89,6.89,6.89h236.22c3.81,0,6.89-3.08,6.89-6.89v-125.98c0-3.81-3.08-6.89-6.89-6.89ZM43.65,130.65h222.44v49.21H43.65v-49.21ZM266.09,242.86H43.65v-49.21h222.44v49.21Z"/>
  <g>
    <path class="cls-3" d="M184.4,158.21h-59.06c-3.81,0-6.89-3.08-6.89-6.89s3.08-6.89,6.89-6.89h59.06c3.81,0,6.89,3.08,6.89,6.89s-3.08,6.89-6.89,6.89Z"/>
    <path class="cls-6" d="M184.4,221.2h-59.06c-3.81,0-6.89-3.08-6.89-6.89s3.08-6.89,6.89-6.89h59.06c3.81,0,6.89,3.08,6.89,6.89s-3.08,6.89-6.89,6.89Z"/>
  </g>
</svg>