<?xml version="1.0" encoding="UTF-8"?>
<svg id="Vrstva_1" xmlns="http://www.w3.org/2000/svg" viewBox="0 0 300 300">
  <defs>
    <style>
      .cls-1 {
        fill: #bdbdbd;
      }

      .cls-2 {
        fill: #ddd;
      }

      .cls-3 {
        fill: #ec3a8f;
        fill-rule: evenodd;
      }
    </style>
  </defs>
  <g>
    <g>
      <path class="cls-1" d="M208.13,83.39h-110.66c-4.03,0-4.03-14.55,0-14.55h110.66c4.03,0,4.03,14.55,0,14.55Z"/>
      <path class="cls-1" d="M208.13,83.39h-110.66c-4.03,0-4.03-14.55,0-14.55h110.66c4.03,0,4.03,14.55,0,14.55Z"/>
      <g>
        <path class="cls-1" d="M208.13,257.98h-110.66c-4.03,0-4.03-14.55,0-14.55h110.66c4.03,0,4.03,14.55,0,14.55Z"/>
        <path class="cls-1" d="M208.13,243.43h-55.33v14.55h55.33c4.03,0,4.03-14.55,0-14.55Z"/>
      </g>
      <g>
        <path class="cls-1" d="M208.13,214.33h-110.66c-4.03,0-4.03-14.55,0-14.55h110.66c4.03,0,4.03,14.55,0,14.55Z"/>
        <path class="cls-1" d="M208.13,199.78h-55.33v14.55h55.33c4.03,0,4.03-14.55,0-14.55Z"/>
      </g>
      <g>
        <path class="cls-1" d="M208.13,170.68h-110.66c-4.03,0-4.03-14.55,0-14.55h110.66c4.03,0,4.03,14.55,0,14.55Z"/>
        <path class="cls-1" d="M208.13,156.14h-55.33v14.55h55.33c4.03,0,4.03-14.55,0-14.55h0Z"/>
      </g>
      <g>
        <path class="cls-1" d="M208.13,127.04h-110.66c-4.03,0-4.03-14.55,0-14.55h110.66c4.03,0,4.03,14.55,0,14.55Z"/>
        <path class="cls-1" d="M208.13,112.49h-55.33v14.55h55.33c4.03,0,4.03-14.55,0-14.55Z"/>
      </g>
      <g>
        <path class="cls-1" d="M208.13,83.39h-110.66c-4.03,0-4.03-14.55,0-14.55h110.66c4.03,0,4.03,14.55,0,14.55Z"/>
        <path class="cls-1" d="M208.13,68.84h-55.33v14.55h55.33c4.03,0,4.03-14.55,0-14.55Z"/>
      </g>
    </g>
    <g>
      <path class="cls-2" d="M97.48,287.56c-4.03,0-7.29-3.26-7.29-7.27V46.17c0-4.02,3.26-7.27,7.29-7.27s7.29,3.26,7.29,7.27v234.12c0,4.02-3.26,7.27-7.29,7.27Z"/>
      <path class="cls-2" d="M208.13,287.74c-4.03,0-7.29-3.26-7.29-7.27V46.35c0-4.02,3.26-7.27,7.29-7.27s7.29,3.26,7.29,7.27v234.12c0,4.02-3.26,7.27-7.29,7.27Z"/>
    </g>
  </g>
  <path class="cls-3" d="M158.46,56.66c2.23-3.3,2.44-6.86.62-10.69-.51,2.05-1.43,3.3-2.78,3.74,1.25-3.57.21-7.42-3.13-11.56-.07,4.28-1.1,7.39-3.08,9.35-2.73,2.69-2.7,5.73.1,9.11-11.61-6.18-13.25-14.47-4.91-24.86.52,2.51,1.77,4.05,3.76,4.63-2.17-9.2.11-17.04,6.84-23.51.04,14.37,4.45,15.65,10.02,22.07,6.02,7.7,2.48,16.59-7.43,21.74h0Z"/>
</svg>