<?xml version="1.0" encoding="UTF-8"?>
<svg id="Vrstva_1" xmlns="http://www.w3.org/2000/svg" viewBox="0 0 300 300">
  <defs>
    <style>
      .cls-1 {
        fill: #757575;
      }

      .cls-2 {
        fill: #abe0f9;
      }

      .cls-3 {
        fill: #c9c9c9;
      }

      .cls-4 {
        fill: #fff;
      }

      .cls-5 {
        fill: #bdbdbd;
      }

      .cls-6 {
        fill: #ddd;
      }

      .cls-7 {
        fill: #9e9e9e;
      }

      .cls-8 {
        fill: #00adef;
      }
    </style>
  </defs>
  <g>
    <g>
      <path class="cls-5" d="M212.76,265.84c14.56,0,26.37-11.8,26.37-26.37V62.21c0-14.56-11.81-26.37-26.37-26.37H70.41c-18.44,0-33.43,15-33.43,33.43v163.13c0,18.43,15,33.43,33.43,33.43h163.14-20.78Z"/>
      <path class="cls-6" d="M237.38,248.92c1.13-2.93,1.75-6.12,1.75-9.45V62.21c0-3.33-.62-6.51-1.75-9.45-1.23-.29-2.52-.44-3.84-.44H70.41c-9.36,0-16.95,7.59-16.95,16.95v163.13c0,9.36,7.59,16.95,16.95,16.95h163.13c1.32,0,2.61-.16,3.84-.44Z"/>
      <path class="cls-7" d="M233.54,35.84h-23.17c14.56,0,26.37,11.8,26.37,26.37v177.27c0,14.56-11.8,26.37-26.37,26.37h23.17c18.43,0,33.43-15,33.43-33.43V69.28c0-18.44-15-33.43-33.43-33.43h0Z"/>
      <path class="cls-3" d="M234.84,52.38c1.22,3.04,1.9,6.36,1.9,9.83v177.27c0,3.48-.68,6.79-1.9,9.83,8.76-.66,15.66-7.97,15.66-16.9V69.28c0-8.93-6.9-16.24-15.66-16.9h0Z"/>
      <g>
        <circle class="cls-1" cx="152" cy="151.8" r="81.94"/>
        <g>
          <g>
            <path class="cls-2" d="M181.73,205.96c-4.87,0-9.3-1.38-13.15-4.1-3.76-2.65-3.17-6.4-2.5-10.73,2.36-15.15-1.13-22.39-9.13-30.4-3.62-3.63-5-5.23-2.71-8.48,9.65-13.67,38.48-12.34,51.55-3.12,12.71,8.97,12.48,28.05,2.94,41.57-6.54,9.27-17.14,15.26-27.01,15.26h0Z"/>
            <path class="cls-2" d="M91.85,181.41c-6.71-14.6-3.95-33.7,10.48-40.34,4.21-1.94,7.14.47,10.54,3.22,12.25,9.89,20.34,10.14,30.88,7.34,2.28-.61,3.74-.93,4.87-.93,2.32,0,3.19,1.47,3.82,2.84,7.22,15.7-9.29,39.79-23.15,46.16-13.82,6.36-30.39-2.97-37.44-18.3Z"/>
            <path class="cls-2" d="M152.13,150.28c-4.6,0-13.67-1.89-22.72-14.58-5.8-8.14-9.56-18.25-9.56-25.74,0-14.54,14.48-26.37,32.27-26.37,15.52,0,32.27,10.08,32.27,26.37,0,4.6-3.4,6.28-7.33,8.23-13.74,6.81-17.65,13.85-19.58,24.99-.87,5.05-1.39,7.1-5.37,7.1Z"/>
          </g>
          <circle class="cls-4" cx="152" cy="150.68" r="16.45"/>
        </g>
      </g>
    </g>
    <circle class="cls-1" cx="226.56" cy="228.36" r="10.18"/>
  </g>
  <path class="cls-8" d="M167.13,163.26c7.72,6.29,10.79,17.76,7.13,27.04-.47,1.31-1.2,2.54-1.86,3.76.14-.69.3-1.37.46-2.03,2.73-9.91.16-20.47-5.74-28.77h0Z"/>
  <path class="cls-8" d="M133.19,159.23c-9.25,3.7-20.77.83-27.11-6.87-.92-1.04-1.64-2.28-2.39-3.45.53.46,1.05.92,1.55,1.39,7.34,7.19,17.82,10.06,27.95,8.93h0Z"/>
  <path class="cls-8" d="M152.47,130.91c1.5-9.85,9.83-18.31,19.68-19.87,1.37-.26,2.8-.25,4.19-.31-.67.22-1.33.44-1.99.63-9.92,2.68-17.71,10.25-21.88,19.55h0Z"/>
</svg>