<?xml version="1.0" encoding="UTF-8"?>
<svg id="Vrstva_1" xmlns="http://www.w3.org/2000/svg" viewBox="0 0 300 300">
  <defs>
    <style>
      .cls-1 {
        fill: #abe0f9;
      }

      .cls-2 {
        fill: #fff;
      }

      .cls-3 {
        fill: #e2efff;
      }

      .cls-4 {
        fill: #00adef;
      }

      .cls-5 {
        fill: #bdbdbd;
      }

      .cls-6 {
        fill: #ddd;
      }

      .cls-7 {
        fill: #9e9e9e;
      }
    </style>
  </defs>
  <polygon class="cls-5" points="199.94 229.57 101.04 229.57 92.8 246.06 208.18 246.06 199.94 229.57"/>
  <path class="cls-6" d="M109.28,229.57H30.99c-4.55,0-8.24-3.69-8.24-8.24V72.99c0-4.55,3.69-8.24,8.24-8.24h239c4.55,0,8.24,3.69,8.24,8.24v148.35c0,4.55-3.69,8.24-8.24,8.24H125.76"/>
  <path class="cls-4" d="M265.87,213.09H35.11c-2.28,0-4.12-1.84-4.12-4.12V77.11c0-2.28,1.84-4.12,4.12-4.12h230.76c2.28,0,4.12,1.84,4.12,4.12v131.86c0,2.28-1.84,4.12-4.12,4.12Z"/>
  <rect class="cls-1" x="39.23" y="81.23" width="222.52" height="123.62"/>
  <path class="cls-6" d="M224.66,254.3H76.32c-2.28,0-4.12-1.84-4.12-4.12s1.84-4.12,4.12-4.12h148.35c2.28,0,4.12,1.84,4.12,4.12,0,2.28-1.84,4.12-4.12,4.12Z"/>
  <path class="cls-2" d="M107.22,194.55c-1.05,0-2.11-.4-2.91-1.21-1.61-1.61-1.61-4.22,0-5.83l94.78-94.78c1.61-1.61,4.22-1.61,5.83,0s1.61,4.22,0,5.83l-94.78,94.78c-.8.8-1.86,1.21-2.91,1.21Z"/>
  <path class="cls-3" d="M111.34,161.58c-1.05,0-2.11-.4-2.91-1.21-1.61-1.61-1.61-4.22,0-5.83l51.51-51.51c1.61-1.61,4.22-1.61,5.83,0,1.61,1.61,1.61,4.22,0,5.83l-51.51,51.51c-.8.8-1.86,1.21-2.91,1.21Z"/>
  <polygon class="cls-7" points="204.06 237.81 199.94 229.57 101.04 229.57 96.92 237.81 204.06 237.81"/>
</svg>