<?xml version="1.0" encoding="UTF-8"?>
<svg id="Vrstva_1" xmlns="http://www.w3.org/2000/svg" viewBox="0 0 300 300">
  <defs>
    <style>
      .cls-1 {
        fill: #757575;
      }

      .cls-2 {
        fill: #abe0f9;
      }

      .cls-3 {
        fill: #fff;
      }

      .cls-4 {
        fill: #00adef;
      }

      .cls-5 {
        fill: #bdbdbd;
      }

      .cls-6 {
        fill: #ec3a8f;
      }

      .cls-7 {
        fill: #ddd;
      }

      .cls-8 {
        fill: #a2a4a5;
      }
    </style>
  </defs>
  <path class="cls-7" d="M194.49,279.36H61.51V31.56h132.98v247.81Z"/>
  <path class="cls-5" d="M47.13,14.51c-1.47,0-2.66,1.19-2.66,2.66v259.53c0,1.47,1.19,2.66,2.66,2.66h14.38s0-247.81,0-247.81h132.98v247.81s14.38,0,14.38,0c1.47,0,2.66-1.19,2.66-2.66V17.17c0-1.47-1.19-2.66-2.66-2.66H47.13Z"/>
  <path class="cls-8" d="M204.11,279.36V34.23c0-1.47-1.2-2.67-2.67-2.67h-6.94s0,247.81,0,247.81h9.61s0,0,0,0Z"/>
  <path class="cls-8" d="M47.13,14.51c-1.47,0-2.66,1.19-2.66,2.66v259.53c0,1.47,1.19,2.66,2.66,2.66h6.95s0-247.81,0-247.81V14.51s-6.95,0-6.95,0Z"/>
  <path class="cls-6" d="M78.27,162.55c2.62,0,4.91-1.38,6.21-3.45h9.28c2.15,0,3.89-1.74,3.89-3.89s-1.74-3.89-3.89-3.89h-9.28c-1.3-2.07-3.6-3.45-6.21-3.45-4.05,0-7.34,3.29-7.34,7.34s3.29,7.34,7.34,7.34Z"/>
  <path class="cls-1" d="M24.17,286.52h210.59c2.77,0,5.01-2,5.01-4.46s-2.24-4.46-5.01-4.46H24.17c-2.77,0-5.01,2-5.01,4.46s2.24,4.46,5.01,4.46Z"/>
  <g id="Layer_28">
    <path class="cls-4" d="M244.72,116.45c-.74,3.68-2.2,7.18-4.29,10.31l4.58,4.58-8.31,8.31-4.58-4.58c-3.12,2.09-6.63,3.54-10.31,4.29v6.46h-11.75v-6.46c-3.68-.74-7.18-2.2-10.31-4.29l-4.58,4.58-8.31-8.31,4.58-4.58c-2.09-3.12-3.54-6.63-4.29-10.31h-6.46v-11.75h6.46c.74-3.68,2.2-7.18,4.29-10.31l-4.58-4.58,8.31-8.31,4.58,4.58c3.12-2.09,6.63-3.54,10.31-4.29v-6.46h11.75v6.46c3.68.74,7.18,2.2,10.31,4.29l4.58-4.58,8.31,8.31-4.58,4.58c2.09,3.12,3.54,6.63,4.29,10.31h6.46v11.75h-6.46Z"/>
    <path class="cls-2" d="M251.18,116.45v-11.75h-6.46c-.74-3.68-2.2-7.18-4.29-10.31l4.58-4.58-8.31-8.31-4.58,4.58c-3.12-2.09-6.63-3.54-10.31-4.29v-6.46h-5.87v70.48h5.87v-6.46c3.68-.74,7.18-2.2,10.31-4.29l4.58,4.58,8.31-8.31-4.58-4.58c2.09-3.12,3.54-6.63,4.29-10.31h6.46Z"/>
    <circle class="cls-3" cx="215.94" cy="110.58" r="14.68"/>
    <path class="cls-4" d="M273.94,189.87c-.55,2.13-1.4,4.16-2.53,6.05l4.7,4.7-8.31,8.31-4.7-4.7c-1.89,1.13-3.92,1.98-6.05,2.53v6.61h-11.75v-6.61c-2.13-.55-4.16-1.4-6.05-2.53l-4.7,4.7-8.31-8.31,4.7-4.7c-1.13-1.89-1.98-3.92-2.53-6.05h-6.61v-11.75h6.61c.55-2.13,1.4-4.16,2.53-6.05l-4.7-4.7,8.31-8.31,4.7,4.7c1.89-1.13,3.92-1.98,6.05-2.53v-6.61h11.75v6.61c2.13.55,4.16,1.4,6.05,2.53l4.7-4.7,8.31,8.31-4.7,4.7c1.13,1.89,1.98,3.92,2.53,6.05h6.61v11.75h-6.61Z"/>
    <path class="cls-2" d="M280.55,189.87v-11.75h-6.61c-.55-2.13-1.4-4.16-2.53-6.05l4.7-4.7-8.31-8.31-4.7,4.7c-1.89-1.13-3.92-1.98-6.05-2.53v-6.61h-5.87v58.73h5.87v-6.61c2.13-.55,4.16-1.4,6.05-2.53l4.7,4.7,8.31-8.31-4.7-4.7c1.13-1.89,1.98-3.92,2.53-6.05h6.61Z"/>
    <circle class="cls-3" cx="251.18" cy="184" r="11.75"/>
  </g>
</svg>