<?xml version="1.0" encoding="UTF-8"?>
<svg id="Vrstva_1" xmlns="http://www.w3.org/2000/svg" viewBox="0 0 300 300">
  <defs>
    <style>
      .cls-1 {
        fill: #757575;
      }

      .cls-2 {
        fill: #bdbdbd;
      }

      .cls-3 {
        fill: #ec3a8f;
      }

      .cls-4 {
        fill: #ddd;
      }

      .cls-5 {
        fill: #a2a4a5;
      }
    </style>
  </defs>
  <path class="cls-4" d="M88.25,35.74h132.98v247.81H88.25V35.74Z"/>
  <path class="cls-2" d="M73.87,18.7c-1.47,0-2.66,1.19-2.66,2.66v259.53c0,1.47,1.19,2.66,2.66,2.66h14.38V35.74h132.98v247.81h14.38c1.47,0,2.66-1.19,2.66-2.66V21.36c0-1.47-1.19-2.66-2.66-2.66H73.87Z"/>
  <path class="cls-5" d="M78.64,283.55h9.61V35.74h-6.94c-1.47,0-2.67,1.2-2.67,2.67v245.14h0Z"/>
  <path class="cls-5" d="M228.67,18.7v264.86h6.95c1.47,0,2.66-1.19,2.66-2.66V21.36c0-1.47-1.19-2.66-2.66-2.66h-6.95Z"/>
  <path class="cls-3" d="M211.81,159.4c0-4.05-3.29-7.34-7.34-7.34-2.62,0-4.91,1.38-6.21,3.45h-9.28c-2.15,0-3.89,1.74-3.89,3.89s1.74,3.89,3.89,3.89h9.28c1.3,2.07,3.59,3.45,6.21,3.45,4.05,0,7.34-3.29,7.34-7.34Z"/>
  <path class="cls-1" d="M246.22,288.7H59.01c-2.46,0-4.46-2-4.46-4.46s1.99-4.46,4.46-4.46h187.21c2.46,0,4.46,2,4.46,4.46s-1.99,4.46-4.46,4.46Z"/>
</svg>