<?xml version="1.0" encoding="UTF-8"?>
<svg id="Vrstva_1" xmlns="http://www.w3.org/2000/svg" viewBox="0 0 300 300">
  <defs>
    <style>
      .cls-1 {
        fill: #757575;
      }

      .cls-2 {
        fill: #fff;
      }

      .cls-3 {
        fill: #00adef;
      }

      .cls-4 {
        fill: #bdbdbd;
      }

      .cls-5 {
        fill: #ec3a8f;
      }

      .cls-6 {
        fill: #ddd;
      }

      .cls-7 {
        fill: #515151;
      }

      .cls-8 {
        fill: #f9c4dd;
      }
    </style>
  </defs>
  <g>
    <g>
      <path class="cls-3" d="M132.76,253.18c-2.18,0-3.95,1.77-3.95,3.95v9.99c0,5.83-4.75,10.58-10.58,10.58h-9.92c-2.18,0-3.95,1.77-3.95,3.95s1.77,3.95,3.95,3.95h9.92c10.2,0,18.49-8.3,18.49-18.49v-9.99c0-2.18-1.77-3.95-3.95-3.95h0Z"/>
      <path class="cls-1" d="M139.82,236.55h-14.12c-2.18,0-3.95,1.77-3.95,3.95v9.7c0,6.07,4.94,11.02,11.02,11.02s11.02-4.94,11.02-11.02v-9.7c0-2.18-1.77-3.95-3.95-3.95h0Z"/>
    </g>
    <g>
      <path class="cls-5" d="M168.81,253.18c2.18,0,3.95,1.77,3.95,3.95v9.99c0,5.83,4.75,10.58,10.58,10.58h9.92c2.18,0,3.95,1.77,3.95,3.95s-1.77,3.95-3.95,3.95h-9.92c-10.2,0-18.49-8.3-18.49-18.49v-9.99c0-2.18,1.77-3.95,3.95-3.95h0Z"/>
      <path class="cls-1" d="M161.75,236.55h14.12c2.18,0,3.95,1.77,3.95,3.95v9.7c0,6.07-4.94,11.02-11.02,11.02s-11.02-4.94-11.02-11.02v-9.7c0-2.18,1.77-3.95,3.95-3.95h0Z"/>
    </g>
  </g>
  <g>
    <path class="cls-7" d="M76.33,40.31h-12.14c-2.18,0-3.95,1.77-3.95,3.95s1.77,3.95,3.95,3.95h12.14c2.18,0,3.95-1.77,3.95-3.95s-1.77-3.95-3.95-3.95Z"/>
    <path class="cls-7" d="M76.33,58.77h-12.14c-2.18,0-3.95,1.77-3.95,3.95s1.77,3.95,3.95,3.95h12.14c2.18,0,3.95-1.77,3.95-3.95s-1.77-3.95-3.95-3.95Z"/>
    <path class="cls-7" d="M237.38,148.73h-12.14c-2.18,0-3.95,1.77-3.95,3.95s1.77,3.95,3.95,3.95h12.14c2.18,0,3.95-1.77,3.95-3.95s-1.77-3.95-3.95-3.95h0Z"/>
  </g>
  <path class="cls-6" d="M207.16,221.88v18.48c0,2.18-1.77,3.95-3.95,3.95h-104.83c-2.18,0-3.95-1.77-3.95-3.95v-18.48c0-2.18,1.77-3.95,3.95-3.95h104.83c2.18,0,3.95,1.77,3.95,3.95Z"/>
  <path class="cls-4" d="M207.16,221.88v18.48c0,2.18-1.77,3.95-3.95,3.95h-15.82c2.18,0,3.95-1.77,3.95-3.95v-18.48c0-2.18-1.77-3.95-3.95-3.95h15.82c2.18,0,3.95,1.77,3.95,3.95Z"/>
  <path class="cls-6" d="M229.2,28.08v154.97l-15.82,4.31-62.59,17.08-78.41-21.39V28.08c0-6.88,5.59-12.47,12.47-12.47h131.89c6.87,0,12.47,5.59,12.47,12.47h0Z"/>
  <path class="cls-4" d="M229.2,28.08v154.97l-15.82,4.31V28.08c0-6.88-5.59-12.47-12.47-12.47h15.82c6.87,0,12.47,5.59,12.47,12.47h0Z"/>
  <path class="cls-1" d="M229.2,183.05v30.32c0,6.88-5.59,12.47-12.47,12.47H84.84c-6.88,0-12.47-5.59-12.47-12.47v-30.32h156.82Z"/>
  <path class="cls-7" d="M229.2,183.05v30.32c0,6.88-5.59,12.47-12.47,12.47h-15.82c6.87,0,12.47-5.59,12.47-12.47v-30.32h15.82Z"/>
  <g>
    <circle class="cls-1" cx="150.84" cy="69.39" r="33.1"/>
    <path class="cls-2" d="M170.69,69.39c0,13.88-6.02,25.18-19.91,25.18-2.09,0-4.12-.26-6.06-.74-10.96-2.72-19.12-12.64-19.12-24.44s8.15-21.72,19.12-24.44c1.95-.49,3.98-.74,6.06-.74,13.88,0,19.91,11.3,19.91,25.18Z"/>
    <path class="cls-6" d="M175.97,69.39c0,13.88-11.3,25.18-25.18,25.18-2.09,0-4.12-.26-6.06-.74,10.96-2.72,19.12-12.64,19.12-24.44s-8.15-21.72-19.12-24.44c1.95-.49,3.98-.74,6.06-.74,13.88,0,25.18,11.3,25.18,25.18Z"/>
    <path class="cls-8" d="M153.58,66.6c-1.55-1.55-4.05-1.54-5.59,0l-8.43,8.43c-1.54,1.54-1.54,4.05,0,5.59.77.77,1.78,1.16,2.8,1.16s2.02-.39,2.8-1.16l8.43-8.43c1.54-1.54,1.54-4.05,0-5.59h0Z"/>
  </g>
  <g>
    <circle class="cls-7" cx="101.9" cy="204.44" r="3.95"/>
    <circle class="cls-7" cx="199.68" cy="204.44" r="3.95"/>
  </g>
</svg>